<?xml version="1.0" standalone="no"?><!DOCTYPE svg PUBLIC "-//W3C//DTD SVG 1.1//EN"
        "http://www.w3.org/Graphics/SVG/1.1/DTD/svg11.dtd">
<svg t="1652022138149" class="icon" viewBox="0 0 1024 1024" version="1.1" xmlns="http://www.w3.org/2000/svg" p-id="6556"
     width="2000" height="2000">
    <defs>
        <style type="text/css">@font-face { font-family: feedback-iconfont; src:
            url("//at.alicdn.com/t/font_1031158_u69w8yhxdu.woff2?t=1630033759944") format("woff2"),
            url("//at.alicdn.com/t/font_1031158_u69w8yhxdu.woff?t=1630033759944") format("woff"),
            url("//at.alicdn.com/t/font_1031158_u69w8yhxdu.ttf?t=1630033759944") format("truetype"); }
        </style>
    </defs>
    <path d="M768 320 256 320C147.2 320 64 403.2 64 512s83.2 192 192 192l512 0c108.8 0 192-83.2 192-192S876.8 320 768 320zM256 672c-89.6 0-160-70.4-160-160S166.4 352 256 352 416 422.4 416 512 345.6 672 256 672zM812.8 633.6c-51.2-19.2-89.6-51.2-108.8-96-12.8 38.4-51.2 70.4-115.2 96C588.8 633.6 582.4 627.2 576 620.8c64-19.2 102.4-51.2 108.8-96L582.4 524.8 582.4 505.6l108.8 0c0-6.4 0-19.2 0-51.2L595.2 454.4 595.2 435.2l64 0c-12.8-19.2-25.6-32-38.4-38.4L633.6 384c12.8 12.8 25.6 25.6 38.4 38.4l-19.2 12.8 64 0c12.8-19.2 25.6-38.4 38.4-51.2l19.2 12.8c-12.8 12.8-25.6 32-32 38.4l64 0 0 19.2-96 0c0 25.6 0 44.8 0 51.2l115.2 0 0 19.2-108.8 0c19.2 44.8 57.6 70.4 115.2 89.6C825.6 620.8 819.2 627.2 812.8 633.6z"
          p-id="6557" data-spm-anchor-id="a313x.7781069.0.i7" class="selected"></path>
</svg>

