<?xml version="1.0" standalone="no"?><!DOCTYPE svg PUBLIC "-//W3C//DTD SVG 1.1//EN"
        "http://www.w3.org/Graphics/SVG/1.1/DTD/svg11.dtd">
<svg t="1652022151470" class="icon" viewBox="0 0 1024 1024" version="1.1" xmlns="http://www.w3.org/2000/svg" p-id="6711"
     width="200" height="200">
    <defs>
        <style type="text/css">@font-face { font-family: feedback-iconfont; src:
            url("//at.alicdn.com/t/font_1031158_u69w8yhxdu.woff2?t=1630033759944") format("woff2"),
            url("//at.alicdn.com/t/font_1031158_u69w8yhxdu.woff?t=1630033759944") format("woff"),
            url("//at.alicdn.com/t/font_1031158_u69w8yhxdu.ttf?t=1630033759944") format("truetype"); }
        </style>
    </defs>
    <path d="M281.6 403.2l83.2 0 0 83.2L281.6 486.4 281.6 403.2zM960 512c0 108.8-83.2 192-192 192L256 704c-108.8 0-192-83.2-192-192s83.2-192 192-192l512 0C876.8 320 960 403.2 960 512zM448 486.4 384 486.4 384 403.2l51.2 0L435.2 384 204.8 384l0 19.2 57.6 0 0 83.2L192 486.4 192 512l70.4 0c0 32-6.4 51.2-12.8 64C236.8 588.8 217.6 608 192 620.8 198.4 627.2 204.8 633.6 211.2 640 236.8 620.8 256 601.6 268.8 582.4 275.2 569.6 281.6 544 281.6 512l83.2 0 0 128L384 640 384 512l64 0L448 486.4zM928 512c0-89.6-70.4-160-160-160S608 422.4 608 512s70.4 160 160 160S928 601.6 928 512z"
          p-id="6712"></path>
</svg>